<?xml version="1.0"?>
<svg xmlns="http://www.w3.org/2000/svg" viewBox="0 0 32 32">
    <path style="text-indent:0;text-align:start;line-height:normal;text-transform:none;block-progression:tb;-inkscape-font-specification:Bitstream Vera Sans" d="M 16 4.9375 C 13.869276 4.9375 11.879948 5.5486064 10.15625 6.5625 C 9.9970205 6.2410927 9.7760431 5.9322931 9.53125 5.6875 C 8.47825 4.5885 7.053 4.93325 6 6.03125 C 4.947 7.12925 4.60325 8.49475 5.65625 9.59375 C 5.8523462 9.7898462 6.064144 9.9548736 6.3125 10.09375 C 4.8635733 12.110148 4 14.515816 4 16.96875 C 4 20.973024 6.5068811 23.759422 10.03125 25 C 10.709302 25.236874 11.390549 25.761414 12.09375 26.375 C 12.10428 26.385 12.1144 26.39636 12.125 26.40625 C 13.161417 27.373851 14.538667 28 16.03125 28 C 17.563367 28 18.917291 27.320799 19.9375 26.40625 C 20.653539 25.779227 21.342105 25.241012 22.03125 25 A 1.0001 1.0001 0 0 0 22.0625 25 C 25.49732 23.756114 27.96875 20.973917 27.96875 16.96875 C 27.96875 14.516125 27.099173 12.110185 25.65625 10.09375 C 25.904714 9.9548736 26.147654 9.7898462 26.34375 9.59375 C 27.44275 8.54075 27.053 7.08425 26 6.03125 C 24.947 4.97925 23.4905 4.6345 22.4375 5.6875 C 22.193038 5.9319617 22.003002 6.2415937 21.84375 6.5625 C 20.123857 5.547722 18.131651 4.9375 16 4.9375 z M 16 6.9375 C 21.487478 6.9375 25.96875 12.019267 25.96875 16.96875 C 25.96875 20.197583 24.25818 22.080886 21.375 23.125 C 20.234145 23.523988 19.372961 24.251273 18.625 24.90625 C 17.907209 25.549701 16.971133 26 16.03125 26 C 15.067095 26 14.168795 25.600531 13.46875 24.9375 A 1.0001 1.0001 0 0 0 13.4375 24.90625 C 12.689879 24.251571 11.829585 23.523982 10.6875 23.125 C 7.7118689 22.077578 6 20.196476 6 16.96875 C 6 12.01804 10.512522 6.9375 16 6.9375 z M 12.4375 14 C 11.608375 14.024875 10.711 14.289 10.0625 14.9375 C 8.7655 16.2335 8.60825 18.18325 9.65625 19.28125 C 10.75325 20.37825 12.703 20.172 14 18.875 C 15.297 17.578 15.15425 15.2605 14.40625 14.5625 C 14.03225 14.2135 13.266625 13.975125 12.4375 14 z M 19.53125 14 C 18.702125 13.975125 17.9365 14.2135 17.5625 14.5625 C 16.8145 15.2605 16.67175 17.578 17.96875 18.875 C 19.26575 20.172 21.2155 20.37825 22.3125 19.28125 C 23.3605 18.18325 23.20325 16.2335 21.90625 14.9375 C 21.25775 14.289 20.360375 14.024875 19.53125 14 z M 12.96875 15 C 13.52075 15 13.96875 15.448 13.96875 16 C 13.96875 16.552 13.52075 17 12.96875 17 C 12.41675 17 11.96875 16.552 11.96875 16 C 11.96875 15.448 12.41675 15 12.96875 15 z M 19 15 C 19.552 15 20 15.448 20 16 C 20 16.552 19.552 17 19 17 C 18.448 17 18 16.552 18 16 C 18 15.448 18.448 15 19 15 z M 16 21 C 14.9 21 14 21.29375 14 21.84375 C 14 22.39375 14.9 23.34375 16 23.34375 C 17.1 23.34375 18 22.39375 18 21.84375 C 18 21.34375 17.1 21 16 21 z" overflow="visible" font-family="Bitstream Vera Sans"/>
</svg>
